<?xml version="1.0" encoding="UTF-8" standalone="no"?>
<!-- Generated by IcoMoon.io -->

<svg
   xmlns:dc="http://purl.org/dc/elements/1.1/"
   xmlns:cc="http://creativecommons.org/ns#"
   xmlns:rdf="http://www.w3.org/1999/02/22-rdf-syntax-ns#"
   xmlns:svg="http://www.w3.org/2000/svg"
   xmlns="http://www.w3.org/2000/svg"
   xmlns:sodipodi="http://sodipodi.sourceforge.net/DTD/sodipodi-0.dtd"
   xmlns:inkscape="http://www.inkscape.org/namespaces/inkscape"
   version="1.1"
   width="16"
   height="16"
   viewBox="0 0 16 16"
   id="svg2"
   inkscape:version="0.48.4 r9939"
   sodipodi:docname="gradient.svg">
  <metadata
     id="metadata12">
    <rdf:RDF>
      <cc:Work
         rdf:about="">
        <dc:format>image/svg+xml</dc:format>
        <dc:type
           rdf:resource="http://purl.org/dc/dcmitype/StillImage" />
        <dc:title></dc:title>
      </cc:Work>
    </rdf:RDF>
  </metadata>
  <defs
     id="defs10" />
  <sodipodi:namedview
     pagecolor="#ffffff"
     bordercolor="#666666"
     borderopacity="1"
     objecttolerance="10"
     gridtolerance="10"
     guidetolerance="10"
     inkscape:pageopacity="0"
     inkscape:pageshadow="2"
     inkscape:window-width="1920"
     inkscape:window-height="1056"
     id="namedview8"
     showgrid="false"
     inkscape:zoom="29.5"
     inkscape:cx="6.2625637"
     inkscape:cy="5.6280649"
     inkscape:window-x="1920"
     inkscape:window-y="24"
     inkscape:window-maximized="1"
     inkscape:current-layer="svg2" />
  <g
     id="g4" />
  <g
     id="g3931">
    <path
       id="path6"
       fill="#268bd2"
       d="M14 16h-12q-0.828 0-1.414-0.586t-0.586-1.414v-12q0-0.828 0.586-1.414t1.414-0.586h12q0.828 0 1.414 0.586t0.586 1.414v12q0 0.828-0.586 1.414t-1.414 0.586zM11 12h-1v-1h1v-1h-1v-1h1v-1h-1v-1h1v-1h-1v-1h1v-1h-1v-1h1v-1h-1v1h-1v-1h-1v1h-1v-1h-4.5q-0.203 0-0.352 0.148t-0.148 0.352v11q0 0.203 0.148 0.352t0.352 0.148h3.5v-1h1v1h1v-1h1v1h1v-1h1v-1zM9 13v-1h1v1h-1zM9 10h1v1h-1v-1zM9 8h1v1h-1v-1zM9 6h1v1h-1v-1zM9 4h1v1h-1v-1zM8 4v-1h1v1h-1zM6 4v-1h1v1h-1zM8 12v1h-1v-1h1zM8 11h1v1h-1v-1zM8 9h1v1h-1v-1zM8 7h1v1h-1v-1zM8 5h1v1h-1v-1zM7 5v-1h1v1h-1zM8 7h-1v-1h1v1zM8 9h-1v-1h1v1zM8 11h-1v-1h1v1zM6 12v-1h1v1h-1zM6 10v-1h1v1h-1zM6 8v-1h1v1h-1zM6 6v-1h1v1h-1z" />
    <path
       inkscape:connector-curvature="0"
       id="path3813"
       d="m 2.357004,13.967233 c -0.1430162,-0.05111 -0.2526353,-0.1527 -0.3160417,-0.292902 -0.027738,-0.06133 -0.029421,-0.385942 -0.029421,-5.6752237 l 0,-5.6101695 0.036427,-0.078799 C 2.0945298,2.2094142 2.2048992,2.0990447 2.3056235,2.052483 l 0.078799,-0.036427 2.3008475,-0.00448 2.3008474,-0.00448 0,0.4917636 0,0.4917636 -0.5,0 -0.5,0 0,0.5084746 0,0.5084746 0.5,0 0.5,0 0,0.4915254 0,0.4915254 -0.5,0 -0.5,0 0,0.5084746 0,0.5084746 0.5,0 0.5,0 0,0.4915254 0,0.4915254 -0.5,0 -0.5,0 0,0.5084746 0,0.5084746 0.5,0 0.5,0 0,0.4915254 0,0.4915255 -0.5,0 -0.5,0 0,0.5084745 0,0.5084747 0.5,0 0.5,0 0,0.491525 0,0.491526 -0.5,0 -0.5,0 0,0.508474 0,0.508475 0.5,0 0.5,0 0,0.491525 0,0.491526 -0.5,0 -0.5,0 0,0.5 0,0.5 -1.7838983,-7.44e-4 c -1.4141826,-5.9e-4 -1.7966064,-0.0053 -1.8452155,-0.02266 z"
       style="fill:#68aee0;fill-opacity:1;stroke:none" />
    <path
       inkscape:connector-curvature="0"
       id="path3815"
       d="m 7.003067,3.4991073 0,-0.4915254 0.4915254,0 0.4915254,0 0,0.4915254 0,0.4915254 -0.4915254,0 -0.4915254,0 0,-0.4915254 z"
       style="fill:#68aee0;fill-opacity:1;stroke:none" />
    <path
       inkscape:connector-curvature="0"
       id="path3817"
       d="m 7.003067,5.4991073 0,-0.4915254 0.4915254,0 0.4915254,0 0,0.4915254 0,0.4915254 -0.4915254,0 -0.4915254,0 0,-0.4915254 z"
       style="fill:#68aee0;fill-opacity:1;stroke:none" />
    <path
       inkscape:connector-curvature="0"
       id="path3819"
       d="m 8.003067,2.4991073 0,-0.4915254 0.4915254,0 0.4915254,0 0,0.4915254 0,0.4915254 -0.4915254,0 -0.4915254,0 0,-0.4915254 z"
       style="fill:#68aee0;fill-opacity:1;stroke:none" />
    <path
       inkscape:connector-curvature="0"
       id="path3821"
       d="m 10.003067,2.4991073 0,-0.4915254 0.491525,0 0.491526,0 0,0.4915254 0,0.4915254 -0.491526,0 -0.491525,0 0,-0.4915254 z"
       style="fill:#68aee0;fill-opacity:1;stroke:none" />
    <path
       inkscape:connector-curvature="0"
       id="path3823"
       d="m 9.003067,3.4991073 0,-0.4915254 0.4915254,0 0.4915254,0 0,0.4915254 0,0.4915254 -0.4915254,0 -0.4915254,0 0,-0.4915254 z"
       style="fill:#68aee0;fill-opacity:1;stroke:none" />
    <path
       inkscape:connector-curvature="0"
       id="path3825"
       d="m 8.003067,4.4991073 0,-0.4915254 0.4915254,0 0.4915254,0 0,0.4915254 0,0.4915254 -0.4915254,0 -0.4915254,0 0,-0.4915254 z"
       style="fill:#68aee0;fill-opacity:1;stroke:none" />
    <path
       inkscape:connector-curvature="0"
       id="path3827"
       d="m 10.003067,4.4991073 0,-0.4915254 0.491525,0 0.491526,0 0,0.4915254 0,0.4915254 -0.491526,0 -0.491525,0 0,-0.4915254 z"
       style="fill:#68aee0;fill-opacity:1;stroke:none" />
    <path
       inkscape:connector-curvature="0"
       id="path3829"
       d="m 9.003067,5.4991073 0,-0.4915254 0.4915254,0 0.4915254,0 0,0.4915254 0,0.4915254 -0.4915254,0 -0.4915254,0 0,-0.4915254 z"
       style="fill:#68aee0;fill-opacity:1;stroke:none" />
    <path
       inkscape:connector-curvature="0"
       id="path3831"
       d="m 8.003067,6.4991073 0,-0.4915254 0.4915254,0 0.4915254,0 0,0.4915254 0,0.4915254 -0.4915254,0 -0.4915254,0 0,-0.4915254 z"
       style="fill:#68aee0;fill-opacity:1;stroke:none" />
    <path
       inkscape:connector-curvature="0"
       id="path3833"
       d="m 9.003067,7.4991073 0,-0.4915254 0.4915254,0 0.4915254,0 0,0.4915254 0,0.4915255 -0.4915254,0 -0.4915254,0 0,-0.4915255 z"
       style="fill:#68aee0;fill-opacity:1;stroke:none" />
    <path
       inkscape:connector-curvature="0"
       id="path3835"
       d="m 10.003067,6.4991073 0,-0.4915254 0.491525,0 0.491526,0 0,0.4915254 0,0.4915254 -0.491526,0 -0.491525,0 0,-0.4915254 z"
       style="fill:#68aee0;fill-opacity:1;stroke:none" />
    <path
       inkscape:connector-curvature="0"
       id="path3837"
       d="m 7.003067,7.4991073 0,-0.4915254 0.4915254,0 0.4915254,0 0,0.4915254 0,0.4915255 -0.4915254,0 -0.4915254,0 0,-0.4915255 z"
       style="fill:#68aee0;fill-opacity:1;stroke:none" />
    <path
       inkscape:connector-curvature="0"
       id="path3839"
       d="m 7.003067,9.4991073 0,-0.4915254 0.4915254,0 0.4915254,0 0,0.4915254 0,0.4915255 -0.4915254,0 -0.4915254,0 0,-0.4915255 z"
       style="fill:#68aee0;fill-opacity:1;stroke:none" />
    <path
       inkscape:connector-curvature="0"
       id="path3841"
       d="m 8.003067,8.4991073 0,-0.4915254 0.4915254,0 0.4915254,0 0,0.4915254 0,0.4915255 -0.4915254,0 -0.4915254,0 0,-0.4915255 z"
       style="fill:#68aee0;fill-opacity:1;stroke:none" />
    <path
       inkscape:connector-curvature="0"
       id="path3843"
       d="m 8.003067,10.499107 0,-0.491525 0.4915254,0 0.4915254,0 0,0.491525 0,0.491526 -0.4915254,0 -0.4915254,0 0,-0.491526 z"
       style="fill:#68aee0;fill-opacity:1;stroke:none" />
    <path
       inkscape:connector-curvature="0"
       id="path3845"
       d="m 9.003067,9.4991073 0,-0.4915254 0.4915254,0 0.4915254,0 0,0.4915254 0,0.4915255 -0.4915254,0 -0.4915254,0 0,-0.4915255 z"
       style="fill:#68aee0;fill-opacity:1;stroke:none" />
    <path
       inkscape:connector-curvature="0"
       id="path3847"
       d="m 10.003067,8.4991073 0,-0.4915254 0.491525,0 0.491526,0 0,0.4915254 0,0.4915255 -0.491526,0 -0.491525,0 0,-0.4915255 z"
       style="fill:#68aee0;fill-opacity:1;stroke:none" />
    <path
       inkscape:connector-curvature="0"
       id="path3849"
       d="m 10.003067,10.499107 0,-0.491525 0.491525,0 0.491526,0 0,0.491525 0,0.491526 -0.491526,0 -0.491525,0 0,-0.491526 z"
       style="fill:#68aee0;fill-opacity:1;stroke:none" />
    <path
       inkscape:connector-curvature="0"
       id="path3851"
       d="m 9.003067,11.499107 0,-0.491525 0.4915254,0 0.4915254,0 0,0.491525 0,0.491526 -0.4915254,0 -0.4915254,0 0,-0.491526 z"
       style="fill:#68aee0;fill-opacity:1;stroke:none" />
    <path
       inkscape:connector-curvature="0"
       id="path3853"
       d="m 7.003067,11.499107 0,-0.491525 0.4915254,0 0.4915254,0 0,0.491525 0,0.491526 -0.4915254,0 -0.4915254,0 0,-0.491526 z"
       style="fill:#68aee0;fill-opacity:1;stroke:none" />
    <path
       inkscape:connector-curvature="0"
       id="path3855"
       d="m 7.003067,13.499107 0,-0.491525 0.4915254,0 0.4915254,0 0,0.491525 0,0.491526 -0.4915254,0 -0.4915254,0 0,-0.491526 z"
       style="fill:#68aee0;fill-opacity:1;stroke:none" />
    <path
       inkscape:connector-curvature="0"
       id="path3857"
       d="m 8.003067,12.499107 0,-0.491525 0.4915254,0 0.4915254,0 0,0.491525 0,0.491526 -0.4915254,0 -0.4915254,0 0,-0.491526 z"
       style="fill:#68aee0;fill-opacity:1;stroke:none" />
    <path
       inkscape:connector-curvature="0"
       id="path3859"
       d="m 9.003067,13.499107 0,-0.491525 0.4915254,0 0.4915254,0 0,0.491525 0,0.491526 -0.4915254,0 -0.4915254,0 0,-0.491526 z"
       style="fill:#68aee0;fill-opacity:1;stroke:none" />
    <path
       inkscape:connector-curvature="0"
       id="path3861"
       d="m 10.003067,12.499107 0,-0.491525 0.491525,0 0.491526,0 0,0.491525 0,0.491526 -0.491526,0 -0.491525,0 0,-0.491526 z"
       style="fill:#68aee0;fill-opacity:1;stroke:none" />
    <path
       inkscape:connector-curvature="0"
       id="rect3886"
       d="m 2.396972,7.4667791 11.265769,0 0,0.8629099 -11.265769,0 z"
       style="fill:#464646;fill-opacity:1;stroke:none" />
    <path
       id="rect3909"
       d="m 12.057528,5.8847775 2.922792,0 c 0.3324,0 0.6,0.2676001 0.6,0.6000001 l 0,2.9227922 c 0,0.3324 -0.2676,0.6000002 -0.6,0.6000002 l -2.922792,0 c -0.3324,0 -0.6,-0.2676002 -0.6,-0.6000002 l 0,-2.9227922 c 0,-0.3324 0.2676,-0.6000001 0.6,-0.6000001 z"
       style="fill:#ffffff;fill-opacity:1;stroke:#464646;stroke-opacity:1" />
    <path
       id="rect3909-7"
       d="m 1.1,5.8852077 2.9227922,0 c 0.3324,0 0.6,0.2676 0.6,0.6 l 0,2.9227922 c 0,0.3324 -0.2676,0.6000001 -0.6,0.6000001 L 1.1,10.008 c -0.33239999,0 -0.6,-0.2676001 -0.6,-0.6000001 l 0,-2.9227922 c 0,-0.3324 0.26760001,-0.6 0.6,-0.6 z"
       style="fill:#ffffff;fill-opacity:1;stroke:#464646;stroke-opacity:1" />
  </g>
</svg>
