<?xml version="1.0" encoding="UTF-8" standalone="no"?>
<!-- Generated by IcoMoon.io -->

<svg
   xmlns:dc="http://purl.org/dc/elements/1.1/"
   xmlns:cc="http://creativecommons.org/ns#"
   xmlns:rdf="http://www.w3.org/1999/02/22-rdf-syntax-ns#"
   xmlns:svg="http://www.w3.org/2000/svg"
   xmlns="http://www.w3.org/2000/svg"
   xmlns:sodipodi="http://sodipodi.sourceforge.net/DTD/sodipodi-0.dtd"
   xmlns:inkscape="http://www.inkscape.org/namespaces/inkscape"
   version="1.1"
   width="16"
   height="16"
   viewBox="0 0 16 16"
   id="svg2"
   inkscape:version="0.48.4 r9939"
   sodipodi:docname="eyedropper.svg">
  <metadata
     id="metadata12">
    <rdf:RDF>
      <cc:Work
         rdf:about="">
        <dc:format>image/svg+xml</dc:format>
        <dc:type
           rdf:resource="http://purl.org/dc/dcmitype/StillImage" />
        <dc:title></dc:title>
      </cc:Work>
    </rdf:RDF>
  </metadata>
  <defs
     id="defs10" />
  <sodipodi:namedview
     pagecolor="#ffffff"
     bordercolor="#666666"
     borderopacity="1"
     objecttolerance="10"
     gridtolerance="10"
     guidetolerance="10"
     inkscape:pageopacity="0"
     inkscape:pageshadow="2"
     inkscape:window-width="1920"
     inkscape:window-height="1056"
     id="namedview8"
     showgrid="false"
     inkscape:zoom="29.5"
     inkscape:cx="11.69248"
     inkscape:cy="8.6152956"
     inkscape:window-x="1920"
     inkscape:window-y="24"
     inkscape:window-maximized="1"
     inkscape:current-layer="svg2" />
  <g
     id="g4" />
  <path
     d="m 4.0333752,14.44025 c -0.309,0.309 -1.083,-0.331 -1.414,0 l -0.84,0.84 c -0.292,0.293 -0.768,0.293 -1.06000004,0 -0.292,-0.293 -0.293,-0.768 0,-1.06 l 0.84000004,-0.84 c 0.332,-0.331 -0.309,-1.104 0,-1.414 0.309,-0.31 8.7609988,-8.7620004 8.7609988,-8.7620004 l 2.474,2.475 c 0,0 -8.4519988,8.4520004 -8.7609988,8.7610004 z m 8.0539988,-8.7620004 -1.768,-1.768 c 0,0 -7.7449988,7.7460004 -8.0539988,8.0550004 -0.309,0.309 0.309,1.104 0,1.414 l -1.194,1.193 c -0.097,0.098 -0.097,0.256 0,0.354 0.097,0.098 0.256,0.098 0.354,0 l 1.194,-1.194 c 0.309,-0.309 1.104,0.309 1.414,0 0.31,-0.309 8.0539988,-8.0540004 8.0539988,-8.0540004 z"
     id="path6"
     inkscape:connector-curvature="0"
     style="fill:#268bd2;fill-opacity:1"
     sodipodi:nodetypes="sscsccsccsccsccssssc" />
  <path
     style="fill:#555555;fill-opacity:1"
     inkscape:connector-curvature="0"
     d="m 13.471556,5.713493 -3.181999,-3.182 c -0.195,-0.196 -0.195,-0.511 0,-0.707 0.196,-0.196 0.512,-0.196 0.707,0 l 0.354,0.353 1.590999,-1.5909999 c 0.683,-0.683 1.791,-0.683 2.475,0 0.684,0.683 0.684,1.7909999 0,2.4739999 l -1.591,1.591 0.354,0.354 c 0.196,0.196 0.196,0.511 0,0.707 -0.196,0.196 -0.512,0.196 -0.707,0 z"
     id="path6-3"
     sodipodi:nodetypes="cccccssccsscc" />
</svg>
