<?xml version="1.0" encoding="UTF-8" standalone="no"?>
<!-- Generated by IcoMoon.io -->

<svg
   xmlns:dc="http://purl.org/dc/elements/1.1/"
   xmlns:cc="http://creativecommons.org/ns#"
   xmlns:rdf="http://www.w3.org/1999/02/22-rdf-syntax-ns#"
   xmlns:svg="http://www.w3.org/2000/svg"
   xmlns="http://www.w3.org/2000/svg"
   xmlns:sodipodi="http://sodipodi.sourceforge.net/DTD/sodipodi-0.dtd"
   xmlns:inkscape="http://www.inkscape.org/namespaces/inkscape"
   version="1.1"
   width="16"
   height="16"
   viewBox="0 0 16 16"
   id="svg2"
   inkscape:version="0.48+devel r12515"
   sodipodi:docname="color-fill.svg">
  <metadata
     id="metadata12">
    <rdf:RDF>
      <cc:Work
         rdf:about="">
        <dc:format>image/svg+xml</dc:format>
        <dc:type
           rdf:resource="http://purl.org/dc/dcmitype/StillImage" />
        <dc:title />
      </cc:Work>
    </rdf:RDF>
  </metadata>
  <defs
     id="defs10" />
  <sodipodi:namedview
     pagecolor="#ffffff"
     bordercolor="#666666"
     borderopacity="1"
     objecttolerance="10"
     gridtolerance="10"
     guidetolerance="10"
     inkscape:pageopacity="0"
     inkscape:pageshadow="2"
     inkscape:window-width="1920"
     inkscape:window-height="1028"
     id="namedview8"
     showgrid="false"
     inkscape:zoom="41.7193"
     inkscape:cx="11.184097"
     inkscape:cy="6.6166167"
     inkscape:window-x="0"
     inkscape:window-y="26"
     inkscape:window-maximized="1"
     inkscape:current-layer="g3800" />
  <g
     id="g4" />
  <g
     id="g3800">
    <path
       sodipodi:nodetypes="ccsccsccssssscc"
       style="fill:#999999;fill-opacity:1"
       inkscape:connector-curvature="0"
       id="path6"
       d="m 14.008801,9.1438434 c 0,0 -3.932527,4.3470796 -5.8954185,6.3155236 -0.3524111,0.342456 -0.7725169,0.513684 -1.2603175,0.513684 -0.4878006,0 -0.9079064,-0.171228 -1.2603175,-0.513684 L 0.58432942,10.450949 C 0.24187348,10.098538 0.07064551,9.6784331 0.07064551,9.1906324 c 0,-0.4878006 0.17122797,-0.9079064 0.51368391,-1.2603174 l 4.46387338,-4.4489407 0,1.5559844 c 0,0.5495223 0.1944565,1.01874 0.5833697,1.4076532 0.3889131,0.3889131 0.8581308,0.5833697 1.4076531,0.5833697 0.5495224,0 1.0187401,-0.1944566 1.4076532,-0.5833697 C 8.835792,6.0560987 9.0302485,5.586881 9.0302485,5.0373587 l 0,-1.1826676 c 0,0 4.9205575,5.3161862 4.9785525,5.2891523 z" />
    <path
       sodipodi:nodetypes="sssssssssss"
       id="path6-2"
       d="m 7.0481854,6.0244083 c -0.2747612,0 -0.5106974,-0.098556 -0.7078087,-0.2956669 C 6.1432654,5.5316301 6.0447098,5.2983486 6.0447098,5.0288968 l 0,-3.9820455 c 0,-0.28007024 0.098556,-0.51600646 0.2956669,-0.70780866 0.1971113,-0.19180221 0.4330475,-0.28770281 0.7078087,-0.28770281 0.2747611,0 0.5080423,0.0958976 0.6998445,0.28770281 0.1918022,0.1918022 0.2877028,0.42773842 0.2877028,0.70780866 l 0,3.9820455 c 0,0.2694518 -0.095898,0.5027333 -0.2877028,0.6998446 C 7.5562277,5.9258527 7.3229465,6.0244083 7.0481854,6.0244083 z"
       inkscape:connector-curvature="0"
       style="fill:#2aa198;fill-opacity:1" />
    <path
       sodipodi:nodetypes="ccccscscccscssssccssssscssscccsscs"
       id="path6-1"
       d="m 14.278403,14.637863 c 0,-0.07874 -0.02196,-0.154308 -0.06587,-0.226679 -0.0022,-0.0022 -0.01911,-0.02685 -0.05078,-0.07397 -0.03165,-0.0471 -0.05961,-0.08868 -0.0839,-0.124748 -0.02428,-0.03607 -0.05164,-0.08427 -0.08206,-0.144618 -0.03042,-0.06035 -0.05348,-0.115668 -0.06918,-0.16596 -0.0089,-0.03508 -0.0319,-0.05262 -0.06918,-0.05262 -0.03729,0 -0.06035,0.01754 -0.06918,0.05262 -0.01546,0.05029 -0.03852,0.105614 -0.06918,0.16596 -0.03067,0.06035 -0.05802,0.108554 -0.08206,0.144618 -0.02404,0.03607 -0.05202,0.07765 -0.0839,0.124748 -0.03189,0.0471 -0.04882,0.07176 -0.05078,0.07397 -0.04391,0.07237 -0.06587,0.14793 -0.06587,0.226679 0,0.116038 0.0411,0.215148 0.123275,0.297332 0.08218,0.08218 0.181295,0.123275 0.297332,0.123275 0.116038,0 0.215148,-0.0411 0.297332,-0.123275 0.08218,-0.08218 0.123275,-0.181294 0.123275,-0.297332 z m 1.682428,-0.420607 c 0,0.464397 -0.164244,1.159515 -0.492732,1.488003 -0.328488,0.328488 -0.724931,0.293676 -1.189328,0.293676 -0.464397,0 -0.86084,0.03481 -1.189328,-0.293676 -0.328487,-0.328488 -0.492732,-1.023606 -0.492732,-1.488003 0,-0.317694 0.08868,-0.618828 0.266054,-0.903404 0.01325,-0.01962 0.08169,-0.118736 0.205335,-0.297331 0.123643,-0.178596 0.234283,-0.343944 0.331922,-0.496045 0.09764,-0.1521 0.35842,-0.853202 0.428009,-2.153924 0.01424,-0.266003 0.135264,-0.6825821 0.146222,-1.2405353 0,0 -1.141074,-1.1127794 -1.086121,-1.1500646 1.200311,0.3442978 1.807061,0.8588718 1.942616,1.9687732 0.03609,1.2838487 0.229378,2.4236507 0.326772,2.5757507 0.09739,0.152101 0.208034,0.317449 0.331922,0.496045 0.123889,0.178595 0.192333,0.277706 0.205336,0.297331 0.177369,0.278197 0.266053,0.579332 0.266053,0.903404 z"
       inkscape:connector-curvature="0"
       style="fill:#dc322f;fill-opacity:1" />
  </g>
</svg>
