<?xml version="1.0" encoding="utf-8"?>
<!-- Generated by IcoMoon.io -->
<!DOCTYPE svg PUBLIC "-//W3C//DTD SVG 1.1//EN" "http://www.w3.org/Graphics/SVG/1.1/DTD/svg11.dtd">
<svg version="1.1" xmlns="http://www.w3.org/2000/svg" xmlns:xlink="http://www.w3.org/1999/xlink" width="16" height="16" viewBox="0 0 16 16">
<g>
</g>
	<path d="M14.828 6.842c1.561-1.559 1.561-4.090 0-5.649-0.78-0.779-1.803-1.17-2.824-1.17-1.021 0-2.044 0.391-2.823 1.17l-0.295 0.295-1.487-1.488-1.41 1.411 1.489 1.488-7.477 7.481v3.624l1.965 1.996h3.707l7.45-7.453 1.438 1.438 1.412-1.41-1.44-1.438 0.295-0.295zM5.16 13.684c0.024-0.758-0.239-1.518-0.814-2.094-0.53-0.531-1.22-0.791-1.916-0.815l6.46-6.462 2.822 2.82-6.551 6.551z" fill="#859900" />
</svg>
