<?xml version="1.0" encoding="UTF-8" standalone="no"?>
<!-- Generated by IcoMoon.io -->

<svg
   xmlns:dc="http://purl.org/dc/elements/1.1/"
   xmlns:cc="http://creativecommons.org/ns#"
   xmlns:rdf="http://www.w3.org/1999/02/22-rdf-syntax-ns#"
   xmlns:svg="http://www.w3.org/2000/svg"
   xmlns="http://www.w3.org/2000/svg"
   xmlns:sodipodi="http://sodipodi.sourceforge.net/DTD/sodipodi-0.dtd"
   xmlns:inkscape="http://www.inkscape.org/namespaces/inkscape"
   version="1.1"
   width="16"
   height="16"
   viewBox="0 0 16 16"
   id="svg2"
   inkscape:version="0.48.4 r9939"
   sodipodi:docname="draw-calligraphic.svg">
  <metadata
     id="metadata12">
    <rdf:RDF>
      <cc:Work
         rdf:about="">
        <dc:format>image/svg+xml</dc:format>
        <dc:type
           rdf:resource="http://purl.org/dc/dcmitype/StillImage" />
        <dc:title />
      </cc:Work>
    </rdf:RDF>
  </metadata>
  <defs
     id="defs10">
    <linearGradient
       id="linearGradient5704">
      <stop
         style="stop-color:#5a5a5a;stop-opacity:1;"
         offset="0"
         id="stop5706" />
      <stop
         style="stop-color:#000000;stop-opacity:1.0000000;"
         offset="1.0000000"
         id="stop5708" />
    </linearGradient>
    <linearGradient
       id="linearGradient16137">
      <stop
         style="stop-color:#db5d00;stop-opacity:1.0000000;"
         offset="0.0000000"
         id="stop16139" />
      <stop
         style="stop-color:#ffd749;stop-opacity:1.0000000;"
         offset="0.35076979"
         id="stop16141" />
      <stop
         style="stop-color:#fff593;stop-opacity:1.0000000;"
         offset="0.59668732"
         id="stop16143" />
      <stop
         style="stop-color:#fff7c2;stop-opacity:1.0000000;"
         offset="0.78382427"
         id="stop16145" />
      <stop
         style="stop-color:#ffffff;stop-opacity:1.0000000;"
         offset="1.0000000"
         id="stop16147" />
    </linearGradient>
    <linearGradient
       id="linearGradient700">
      <stop
         id="stop347"
         offset="0"
         style="stop-color:#376796;stop-opacity:1;" />
      <stop
         id="stop348"
         offset="1.0000000"
         style="stop-color:#b0dde2;stop-opacity:1.0000000;" />
    </linearGradient>
    <linearGradient
       id="linearGradient3480">
      <stop
         id="stop3482"
         offset="0.0000000"
         style="stop-color:#646464;stop-opacity:1.0000000;" />
      <stop
         id="stop3484"
         offset="1.0000000"
         style="stop-color:#000000;stop-opacity:1.0000000;" />
    </linearGradient>
  </defs>
  <sodipodi:namedview
     pagecolor="#ffffff"
     bordercolor="#666666"
     borderopacity="1"
     objecttolerance="10"
     gridtolerance="10"
     guidetolerance="10"
     inkscape:pageopacity="0"
     inkscape:pageshadow="2"
     inkscape:window-width="1920"
     inkscape:window-height="1056"
     id="namedview8"
     showgrid="false"
     inkscape:zoom="14.75"
     inkscape:cx="-3.3220339"
     inkscape:cy="8"
     inkscape:window-x="1920"
     inkscape:window-y="24"
     inkscape:window-maximized="1"
     inkscape:current-layer="svg2" />
  <g
     id="g4" />
  <path
     d="M 9.4634702,7.3872799 5.0584633,11.792287 c -0.093558,0.09356 -0.1504719,0.223759 -0.1504719,0.366434 0,0.286131 0.2315552,0.520025 0.5200247,0.520025 0.075626,0 0.145794,-0.01559 0.2105047,-0.04444 0,0 7.3388192,-3.1809609 7.4222412,-3.2199433 0.171523,-0.077965 0.304063,-0.2284366 0.356299,-0.415552 l 1.187403,-4.2802634 0.239351,0.2362332 c 0.249488,0.2494871 0.652565,0.2494871 0.901273,0 0.249487,-0.2494872 0.249487,-0.6525648 0,-0.9020519 L 12.083085,0.39150517 c -0.249488,-0.24948712 -0.652565,-0.24948712 -0.901273,0 -0.249487,0.24948712 -0.249487,0.65256473 0,0.90205183 L 11.418045,1.5297901 7.129986,2.7226504 C 6.9428707,2.7772257 6.7923987,2.9121047 6.714434,3.0890846 L 3.4999484,10.506649 c -0.025728,0.06237 -0.041321,0.130201 -0.041321,0.202708 0,0.288469 0.2338942,0.520025 0.5200247,0.520025 0.148133,0 0.280673,-0.06003 0.3742307,-0.158269 L 8.750093,6.6739026 C 8.6900601,6.5203121 8.6565353,6.3565862 8.6565353,6.1827249 c 0,-0.7172755 0.5823965,-1.299672 1.2996721,-1.299672 0.7172746,0 1.2996716,0.5823965 1.2996716,1.299672 0,0.7172754 -0.582397,1.2996719 -1.2996716,1.2996719 -0.1738615,0 -0.3375874,-0.033525 -0.4911779,-0.093558 z"
     id="path6"
     inkscape:connector-curvature="0"
     style="fill:#aaaaaa;fill-opacity:1" />
  <g
     id="draw-calligraphic"
     transform="translate(-31.154378,-101.09828)"
     inkscape:label="#draw_calligraphic">
    <path
       inkscape:connector-curvature="0"
       style="fill:#333333;fill-opacity:0.94117647;stroke-width:1pt"
       d="m 31.220339,101.2051 0,0.33136 c 5.166114,1.51748 -1.435769,10.36596 2.98221,13.91698 2.752315,2.2122 7.057633,1.889 8.946631,0 0.662713,-0.66271 1.98814,-1.32543 3.789859,-0.6213 l 0,-0.145 c -1.139005,-1.88456 -3.127146,-1.5532 -4.121216,-0.22777 -1.257432,1.67653 -5.346738,2.53969 -7.36527,-0.42204 -4.142379,-6.07797 7.689001,-11.27291 -4.232214,-12.83223 z"
       id="path12296"
       sodipodi:nodetypes="ccssccssc" />
  </g>
</svg>
