<?xml version="1.0" encoding="UTF-8" standalone="no"?>
<svg
   xmlns:dc="http://purl.org/dc/elements/1.1/"
   xmlns:cc="http://creativecommons.org/ns#"
   xmlns:rdf="http://www.w3.org/1999/02/22-rdf-syntax-ns#"
   xmlns:svg="http://www.w3.org/2000/svg"
   xmlns="http://www.w3.org/2000/svg"
   xmlns:sodipodi="http://sodipodi.sourceforge.net/DTD/sodipodi-0.dtd"
   xmlns:inkscape="http://www.inkscape.org/namespaces/inkscape"
   width="16"
   viewBox="0 0 16 16"
   height="16"
   id="svg2"
   version="1.1"
   inkscape:version="0.48+devel r12515"
   sodipodi:docname="object-locked.svg">
  <metadata
     id="metadata12">
    <rdf:RDF>
      <cc:Work
         rdf:about="">
        <dc:format>image/svg+xml</dc:format>
        <dc:type
           rdf:resource="http://purl.org/dc/dcmitype/StillImage" />
      </cc:Work>
    </rdf:RDF>
  </metadata>
  <defs
     id="defs10" />
  <sodipodi:namedview
     pagecolor="#ffffff"
     bordercolor="#666666"
     borderopacity="1"
     objecttolerance="10"
     gridtolerance="10"
     guidetolerance="10"
     inkscape:pageopacity="0"
     inkscape:pageshadow="2"
     inkscape:window-width="1920"
     inkscape:window-height="1036"
     id="namedview8"
     showgrid="false"
     inkscape:zoom="14.75"
     inkscape:cx="-1.2542373"
     inkscape:cy="8"
     inkscape:window-x="0"
     inkscape:window-y="22"
     inkscape:window-maximized="1"
     inkscape:current-layer="svg2" />
  <path
     style="fill:#268bd2;line-height:normal;color:#000"
     d="m 8,0 c 0,0 5.000001,0.00885 5.005331,3.5469052 l 0,3.0548598 c 0,0 1.994669,0 1.994669,0.80258 l 0,7.32267 C 14.999921,15.400305 14.285378,15.99991 13.499999,16 L 2.499995,16 C 1.7146219,15.99991 1.000073,15.400305 1,14.727015 L 1,7.404345 C 1,6.601765 3.021647,6.595655 3.021647,6.595655 L 2.959147,3.5469052 C 2.999967,0.004695 8.000004,0 8,0 z m 0,1.7758002 c 0,0 -3.000002,0 -3.000002,2.65666 l 0,2.1693048 6.000004,0 0,-2.1693048 C 11.000002,1.7758002 8,1.7758002 8,1.7758002 z"
     id="path4" />
  <path
     style="fill-rule:evenodd;fill-opacity:.1"
     d="m 8,9 c -1.10457,0 -2,0.89543 -2,2 0,0.739604 0.403104,1.372707 1,1.71875 L 7,15 9,15 9,12.71875 C 9.596895,12.372707 10,11.739604 10,11 10,9.89543 9.104569,9 8,9 z"
     id="path6" />
</svg>
