<?xml version="1.0" encoding="UTF-8" standalone="no"?>
<svg
   xmlns:dc="http://purl.org/dc/elements/1.1/"
   xmlns:cc="http://creativecommons.org/ns#"
   xmlns:rdf="http://www.w3.org/1999/02/22-rdf-syntax-ns#"
   xmlns:svg="http://www.w3.org/2000/svg"
   xmlns="http://www.w3.org/2000/svg"
   xmlns:sodipodi="http://sodipodi.sourceforge.net/DTD/sodipodi-0.dtd"
   xmlns:inkscape="http://www.inkscape.org/namespaces/inkscape"
   width="16"
   viewBox="0 0 16 16"
   height="16"
   id="svg2"
   version="1.1"
   inkscape:version="0.48+devel r12515"
   sodipodi:docname="object-unlocked.svg">
  <metadata
     id="metadata12">
    <rdf:RDF>
      <cc:Work
         rdf:about="">
        <dc:format>image/svg+xml</dc:format>
        <dc:type
           rdf:resource="http://purl.org/dc/dcmitype/StillImage" />
        <dc:title></dc:title>
      </cc:Work>
    </rdf:RDF>
  </metadata>
  <defs
     id="defs10" />
  <sodipodi:namedview
     pagecolor="#ffffff"
     bordercolor="#666666"
     borderopacity="1"
     objecttolerance="10"
     gridtolerance="10"
     guidetolerance="10"
     inkscape:pageopacity="0"
     inkscape:pageshadow="2"
     inkscape:window-width="1920"
     inkscape:window-height="1036"
     id="namedview8"
     showgrid="false"
     inkscape:zoom="14.75"
     inkscape:cx="8.2711864"
     inkscape:cy="8"
     inkscape:window-x="0"
     inkscape:window-y="22"
     inkscape:window-maximized="1"
     inkscape:current-layer="svg2" />
  <path
     style="line-height:normal;color:#000000;fill:#68aee0;fill-opacity:1"
     d="m 8,0 c 4e-6,0 -5.0001956,0.0046648 -5.0410156,3.546875 l 0.013672,1.0625 2.0273438,0 0,-0.1777344 c 0,-2.65666 3,-2.65625 3,-2.65625 0,0 3,-4.1e-4 3,2.65625 l 0,4.1699219 -7.9785156,-0.00586 C 3.0214844,8.5957031 1,8.6017169 1,9.4042969 L 1,14.726562 C 1.000073,15.399853 1.7146269,15.99991 2.5,16 l 11,0 c 0.785379,-9e-5 1.499921,-0.600148 1.5,-1.273438 l 0,-5.3222651 c 0,-0.80258 -1.994141,-0.8027344 -1.994141,-0.8027344 l 0,-5.0546875 C 13.000529,0.0088198 8,0 8,0 Z"
     id="path4"
     inkscape:connector-curvature="0"
     sodipodi:nodetypes="ccccscsccsccccsccc" />
  <path
     style="fill-rule:evenodd;fill-opacity:.1"
     d="m 8,9 c -1.10457,0 -2,0.89543 -2,2 0,0.739604 0.403104,1.372707 1,1.71875 L 7,15 9,15 9,12.71875 C 9.596895,12.372707 10,11.739604 10,11 10,9.89543 9.104569,9 8,9 z"
     id="path6" />
</svg>
