<?xml version="1.0" encoding="UTF-8" standalone="no"?>
<svg
   xmlns:dc="http://purl.org/dc/elements/1.1/"
   xmlns:cc="http://creativecommons.org/ns#"
   xmlns:rdf="http://www.w3.org/1999/02/22-rdf-syntax-ns#"
   xmlns:svg="http://www.w3.org/2000/svg"
   xmlns="http://www.w3.org/2000/svg"
   xmlns:sodipodi="http://sodipodi.sourceforge.net/DTD/sodipodi-0.dtd"
   xmlns:inkscape="http://www.inkscape.org/namespaces/inkscape"
   width="16"
   height="16"
   viewBox="0 0 16 16"
   id="svg2"
   version="1.1"
   inkscape:version="0.48+devel r12515"
   sodipodi:docname="selection-lower.svg">
  <metadata
     id="metadata18">
    <rdf:RDF>
      <cc:Work
         rdf:about="">
        <dc:format>image/svg+xml</dc:format>
        <dc:type
           rdf:resource="http://purl.org/dc/dcmitype/StillImage" />
        <dc:title></dc:title>
      </cc:Work>
    </rdf:RDF>
  </metadata>
  <defs
     id="defs16" />
  <sodipodi:namedview
     pagecolor="#ffffff"
     bordercolor="#666666"
     borderopacity="1"
     objecttolerance="10"
     gridtolerance="10"
     guidetolerance="10"
     inkscape:pageopacity="0"
     inkscape:pageshadow="2"
     inkscape:window-width="1920"
     inkscape:window-height="1036"
     id="namedview14"
     showgrid="false"
     inkscape:zoom="41.7193"
     inkscape:cx="7.8488835"
     inkscape:cy="8.6256682"
     inkscape:window-x="0"
     inkscape:window-y="22"
     inkscape:window-maximized="1"
     inkscape:current-layer="g4064" />
  <g
     style="fill:#888"
     transform="translate(-4 -4)"
     id="g4" />
  <g
     id="g4064"
     transform="matrix(1,0,0,-1,0,16)">
    <path
       sodipodi:nodetypes="ccccc"
       inkscape:connector-curvature="0"
       id="path6"
       d="m 8.029857,15.002943 0,-2 7,0 0,2 z"
       style="fill:#888888" />
    <path
       sodipodi:nodetypes="ccccc"
       inkscape:connector-curvature="0"
       id="path8"
       d="m 8.029857,3 0,-2 7,0 0,2 z"
       style="fill:#888888" />
    <path
       sodipodi:nodetypes="ccccc"
       inkscape:connector-curvature="0"
       id="path10"
       d="m 8.029857,11.002943 0,-2 7,0 0,2 z"
       style="fill:#888888" />
    <g
       transform="matrix(0,-1,1,0,4.032943,46.240231)"
       id="g4037">
      <path
         inkscape:connector-curvature="0"
         style="line-height:normal;color:#000000;fill:#268bd2"
         d="m 33.226255,2.999965 1,-1e-5 c 0.26531,-3e-5 0.53058,-0.0931 0.71875,-0.28124 l 2,-2.00001 0.28126,-0.28125 0,-0.87499 -0.28126,-0.28126 -2,-1.99999 c -0.18818,-0.18821 -0.98405,-0.2812073 -0.71876,-0.28121 l -1,-10e-6 0,1 c -4e-5,0.26531 0.0931,0.53059 0.28121,0.71877 l 1.28126,1.28124 -1.28125,1.28125 c -0.18815,0.18817 -0.28125,0.45345 -0.28125,0.71875 l 0,1 z"
         id="path8-2"
         sodipodi:nodetypes="ccccccccscccccscc" />
      <path
         sodipodi:nodetypes="ccccc"
         inkscape:connector-curvature="0"
         style="line-height:normal;color:#000000;fill:#268bd2"
         d="m 31.263288,-1.000045 0,2 3.962777,0 0,-2 z"
         id="path10-5" />
    </g>
    <path
       style="fill:#dc322f;fill-opacity:1"
       id="path12-7"
       d="M 1,6.9835999 1,4.9836 l 14,0 0,1.9999999 z"
       inkscape:connector-curvature="0" />
  </g>
</svg>
