<?xml version="1.0" encoding="UTF-8" standalone="no"?>
<!-- Generated by IcoMoon.io -->

<svg
   xmlns:dc="http://purl.org/dc/elements/1.1/"
   xmlns:cc="http://creativecommons.org/ns#"
   xmlns:rdf="http://www.w3.org/1999/02/22-rdf-syntax-ns#"
   xmlns:svg="http://www.w3.org/2000/svg"
   xmlns="http://www.w3.org/2000/svg"
   xmlns:sodipodi="http://sodipodi.sourceforge.net/DTD/sodipodi-0.dtd"
   xmlns:inkscape="http://www.inkscape.org/namespaces/inkscape"
   version="1.1"
   width="16"
   height="16"
   viewBox="0 0 16 16"
   id="svg2"
   inkscape:version="0.48.4 r9939"
   sodipodi:docname="spray.svg">
  <metadata
     id="metadata12">
    <rdf:RDF>
      <cc:Work
         rdf:about="">
        <dc:format>image/svg+xml</dc:format>
        <dc:type
           rdf:resource="http://purl.org/dc/dcmitype/StillImage" />
        <dc:title></dc:title>
      </cc:Work>
    </rdf:RDF>
  </metadata>
  <defs
     id="defs10" />
  <sodipodi:namedview
     pagecolor="#ffffff"
     bordercolor="#666666"
     borderopacity="1"
     objecttolerance="10"
     gridtolerance="10"
     guidetolerance="10"
     inkscape:pageopacity="0"
     inkscape:pageshadow="2"
     inkscape:window-width="1920"
     inkscape:window-height="1056"
     id="namedview8"
     showgrid="false"
     inkscape:zoom="14.75"
     inkscape:cx="14.031505"
     inkscape:cy="4.4295335"
     inkscape:window-x="1920"
     inkscape:window-y="24"
     inkscape:window-maximized="1"
     inkscape:current-layer="svg2" />
  <g
     id="g4" />
  <path
     style="fill:#859900;fill-opacity:1;stroke:none"
     d="m 8.4283498,5.9918853 2.7653892,-1.655852 3.288628,0.7348701 1.487179,9.7758736 -6.0540175,0.920981 z"
     id="rect2989"
     inkscape:connector-curvature="0"
     sodipodi:nodetypes="cccccc" />
  <path
     d="M 14.497182,5.1307975 12.437123,3.1255223 12.10035,0.91177028 C 12.058804,0.63866681 11.922944,0.41742007 11.692768,0.24802993 11.462594,0.07863979 10.93785,0.05626449 10.93785,0.05626449 l -0.605401,0.09209814 c 0,0 -0.5078028,0.1794538 -0.671812,0.40881013 C 9.4966281,0.78652911 9.435397,1.0377589 9.4769434,1.3108624 L 9.8160182,3.5397494 8.4431655,6.0517792 C 10.834503,4.9456341 12.13798,4.8215752 14.497182,5.1307975 z"
     id="path6"
     inkscape:connector-curvature="0"
     style="fill:#2aa198;fill-opacity:1"
     sodipodi:nodetypes="ccssssssccc" />
  <path
     style="fill:#2aa198;fill-opacity:1;stroke:none"
     d="m 15.97465,14.84103 c 0.04267,0.280504 -1.280421,0.714437 -2.955209,0.969218 -1.67479,0.254782 -3.0670664,0.23393 -3.1097392,-0.04657 -0.042672,-0.280503 1.2804202,-0.714436 2.9552092,-0.969218 1.67479,-0.254781 3.067066,-0.23393 3.109739,0.04657 z"
     id="path3760"
     inkscape:connector-curvature="0" />
  <path
     d="M 0.61674601,4.3406029 C 0.75329741,4.3198297 0.86411519,4.2520422 0.94919735,4.1372396 1.0342765,4.0224375 1.0660475,3.896475 1.0444989,3.7593531 1.0229503,3.6222311 0.95516282,3.511414 0.84113552,3.4269017 0.72710821,3.3423892 0.60114643,3.3106222 0.46324907,3.3316002 0.32535169,3.3525778 0.21453484,3.4203658 0.13079766,3.5349635 0.04706047,3.6495616 0.01529361,3.7755233 0.03549622,3.91285 c 0.0202026,0.1373268 0.08799406,0.2481433 0.20336333,0.3324515 0.11536933,0.084309 0.24133515,0.1160746 0.3778865,0.095302 z M 1.3187547,2.1691005 C 1.4553061,2.1483273 1.566124,2.0805398 1.6512062,1.9657373 1.7362854,1.8509351 1.7680562,1.7249727 1.7465076,1.5878508 1.724959,1.4507288 1.6571716,1.3399116 1.5431443,1.2553993 1.429117,1.1708867 1.3031552,1.1391199 1.1652578,1.1600978 1.0273605,1.1810758 0.9165436,1.2488632 0.83280641,1.3634612 0.74906932,1.4780592 0.71730238,1.6040209 0.73750477,1.7413477 0.75770777,1.8786744 0.82549883,1.9894911 0.94086804,2.0737991 1.0562374,2.1581077 1.1822033,2.1898738 1.3187545,2.1691007 z M 2.6347514,4.033609 C 2.7713033,4.0128358 2.8821205,3.9450483 2.967203,3.8302456 3.0522852,3.7154431 3.0840527,3.5894812 3.0625044,3.4523591 3.0409562,3.3152371 2.9731684,3.20442 2.8591411,3.1199078 2.7451138,3.0353951 2.6191516,3.0036284 2.4812544,3.0246064 2.343357,3.0455843 2.2325402,3.1133717 2.148803,3.2279696 2.065066,3.3425677 2.0332989,3.4685294 2.0535014,3.6058561 c 0.020203,0.1373268 0.087994,0.2481433 0.2033634,0.3324515 0.1153693,0.084309 0.2413351,0.1160746 0.3778865,0.095302 z M 3.4135084,2.366608 C 3.5500609,2.3458347 3.6608776,2.2780473 3.7459599,2.1632447 3.831039,2.0484426 3.8628099,1.9224802 3.8412613,1.7853582 3.8197138,1.6482361 3.7519252,1.5374191 3.6378979,1.4529069 3.5238706,1.3683942 3.3979089,1.3366274 3.2600114,1.3576053 3.1221151,1.378583 3.0112973,1.446371 2.9275605,1.5609686 c -0.083737,0.114598 -0.1155044,0.2405598 -0.095302,0.3778865 0.020203,0.1373267 0.087991,0.2481438 0.2033634,0.3324514 0.1153723,0.084308 0.2413347,0.1160748 0.377886,0.095302 z M 4.6527565,3.7266152 C 4.7893089,3.7058418 4.9001258,3.6380544 4.985208,3.5232518 5.0702872,3.4084497 5.1020581,3.2824873 5.0805095,3.1453653 5.0589618,3.0082432 4.9911734,2.8974262 4.8771461,2.8129139 4.7631188,2.7284013 4.637157,2.6966345 4.4992596,2.7176125 4.3613633,2.7385903 4.2505454,2.8063778 4.1668082,2.9209758 c -0.083737,0.114598 -0.115504,0.2405597 -0.095302,0.3778865 0.020204,0.1373266 0.087994,0.2481432 0.2033632,0.3324514 0.1153694,0.084309 0.2413352,0.1160747 0.3778865,0.095302 z M 5.5082624,2.5641155 C 5.6448147,2.5433421 5.7556315,2.4755547 5.8407137,2.3607522 5.9257929,2.24595 5.9575638,2.1199877 5.9360152,1.9828657 5.9144677,1.8457436 5.8466792,1.7349265 5.7326519,1.6504143 5.6186245,1.5659017 5.4926627,1.5341349 5.3547654,1.5551128 5.216869,1.5760906 5.1060511,1.6438782 5.0223139,1.7584761 c -0.083737,0.114598 -0.115504,0.2405597 -0.095302,0.3778865 0.020204,0.1373266 0.087994,0.2481433 0.2033634,0.3324514 0.1153693,0.084309 0.2413351,0.1160747 0.3778865,0.095302 z M 6.670762,3.4196213 C 6.8073144,3.3988479 6.9181312,3.3310605 7.0032134,3.2162579 7.0882925,3.1014558 7.1200634,2.9754934 7.0985149,2.8383714 7.0769673,2.7012493 7.0091788,2.5904323 6.8951515,2.50592 6.7811242,2.4214074 6.6551625,2.3896406 6.517265,2.4106185 6.3793686,2.4315964 6.2685508,2.4993839 6.1848137,2.6139819 6.1010766,2.7285798 6.0693095,2.8545416 6.089512,2.9918684 6.109716,3.129195 6.1775061,3.2400116 6.2928754,3.3243197 6.4082447,3.4086284 6.5342105,3.4403945 6.6707619,3.4196214 z M 8.6887673,3.1126274 C 8.8253198,3.0918539 8.9361366,3.0240666 9.0212188,2.909264 9.106298,2.7944618 9.1380689,2.6684995 9.1165203,2.5313775 9.0949727,2.3942554 9.0271843,2.2834384 8.9131569,2.1989261 8.7991296,2.1144135 8.6731678,2.0826467 8.5352704,2.1036246 8.3973741,2.1246025 8.2865562,2.19239 8.202819,2.306988 8.1190819,2.4215859 8.087315,2.5475478 8.1075174,2.6848745 c 0.020204,0.1373265 0.087994,0.2481432 0.2033632,0.3324513 0.1153695,0.084309 0.2413353,0.1160748 0.3778865,0.095302 z m -3.027008,0.4604908 c -0.1365514,0.020773 -0.2473682,0.08856 -0.3324515,0.2033633 -0.085079,0.1148021 -0.116849,0.2407644 -0.095302,0.3778865 0.021548,0.1371221 0.089336,0.2479391 0.2033634,0.3324515 0.1140273,0.084513 0.2399901,0.1162793 0.3778865,0.095302 C 5.9531536,4.561143 6.0639705,4.4933556 6.1477076,4.3787575 6.2314448,4.2641596 6.2632127,4.1381977 6.2430091,4.000871 6.2228065,3.8635443 6.1550151,3.7527278 6.0396458,3.6684197 5.9242765,3.5841113 5.7983117,3.5523449 5.6617593,3.5731182 z M 3.7205024,4.3846135 C 3.583951,4.4053866 3.4731341,4.473174 3.3880513,4.5879768 3.3029692,4.7027793 3.2712016,4.8287412 3.2927499,4.9658633 c 0.021548,0.137122 0.089336,0.2479391 0.2033633,0.3324513 0.1140274,0.084512 0.2399897,0.1162794 0.3778861,0.095301 0.1378973,-0.020978 0.2487142,-0.088765 0.3324514,-0.2033632 0.083737,-0.1145981 0.115505,-0.24056 0.095301,-0.3778865 C 4.2815496,4.6750396 4.2137582,4.5642231 4.0983889,4.4799149 3.9830195,4.3956065 3.8570548,4.3638401 3.7205024,4.3846135 z M 1.7792457,5.1961087 C 1.6426943,5.2168818 1.5318764,5.2846694 1.4467942,5.399472 1.361715,5.5142741 1.3299442,5.6402365 1.3514928,5.7773585 1.373041,5.9144805 1.440829,6.0252977 1.5548561,6.1098099 1.6688834,6.1943227 1.7948452,6.2260893 1.9327426,6.2051116 2.0706399,6.1841334 2.1814568,6.116346 2.265194,6.0017481 2.3489312,5.8871501 2.380698,5.7611883 2.3604954,5.6238616 2.3402928,5.4865348 2.2725014,5.3757183 2.1571322,5.2914102 2.0417627,5.2071017 1.9157969,5.1753355 1.7792457,5.1961087 z"
     id="path6-1"
     inkscape:connector-curvature="0"
     style="fill:#268bd2;fill-opacity:1"
     sodipodi:nodetypes="sssssssssssssssssssssssssssssssssssssssssssssssssssssssssssssssssssssssssssssssssssssssssssssssssss" />
</svg>
