<?xml version="1.0" encoding="UTF-8" standalone="no"?>
<svg
   xmlns:dc="http://purl.org/dc/elements/1.1/"
   xmlns:cc="http://creativecommons.org/ns#"
   xmlns:rdf="http://www.w3.org/1999/02/22-rdf-syntax-ns#"
   xmlns:svg="http://www.w3.org/2000/svg"
   xmlns="http://www.w3.org/2000/svg"
   xmlns:sodipodi="http://sodipodi.sourceforge.net/DTD/sodipodi-0.dtd"
   xmlns:inkscape="http://www.inkscape.org/namespaces/inkscape"
   width="16"
   height="16"
   viewBox="0 0 16 16"
   id="svg2"
   version="1.1"
   inkscape:version="0.48+devel r12515"
   sodipodi:docname="zoom.svg">
  <metadata
     id="metadata16">
    <rdf:RDF>
      <cc:Work
         rdf:about="">
        <dc:format>image/svg+xml</dc:format>
        <dc:type
           rdf:resource="http://purl.org/dc/dcmitype/StillImage" />
        <dc:title></dc:title>
      </cc:Work>
    </rdf:RDF>
  </metadata>
  <defs
     id="defs14" />
  <sodipodi:namedview
     pagecolor="#ffffff"
     bordercolor="#666666"
     borderopacity="1"
     objecttolerance="10"
     gridtolerance="10"
     guidetolerance="10"
     inkscape:pageopacity="0"
     inkscape:pageshadow="2"
     inkscape:window-width="1920"
     inkscape:window-height="1036"
     id="namedview12"
     showgrid="false"
     inkscape:zoom="7.375"
     inkscape:cx="-12.051948"
     inkscape:cy="2.2191258"
     inkscape:window-x="0"
     inkscape:window-y="22"
     inkscape:window-maximized="1"
     inkscape:current-layer="svg2" />
  <g
     style="fill:#2aa198;fill-rule:evenodd"
     transform="matrix(.82837 0 0 .82837 -2.48512 -2.22625)"
     id="g4">
    <path
       d="m 11,2.6875 c -4.42,0 -8,3.577 -8,8 0,4.42 3.58,8 8,8 1.22,0 2.36625,-0.27 3.40625,-0.75 l 3,3 c 1.41,1.42 1.42375,1.42 2.84375,0 1.41,-1.41 1.41,-1.42375 0,-2.84375 l -2.75,-2.75 c 0.94,-1.32 1.5,-2.91625 1.5,-4.65625 0,-4.423 -3.58,-8 -8,-8 z m -0.125,4 a 4,3.999 0 0 1 4.125,4 4,3.999 0 0 1 -8,0 4,3.999 0 0 1 3.875,-4 z"
       id="path6" />
    <path
       style="fill:#fff"
       d="m 7,10.686 a 4,3.999 0 0 0 8,0 4,3.999 0 1 0 -8,0 z"
       id="path8" />
    <path
       style="fill-opacity:.3"
       d="m 7,10.686 a 4,3.999 0 0 0 8,0 4,3.999 0 1 0 -8,0 z"
       id="path10" />
  </g>
  <path
     inkscape:connector-curvature="0"
     style="fill:#ffffff;fill-opacity:1"
     d="m 8.9322037,2.2259888 -1.80226,0 0,-1.80226032 -1.80226,0 0,1.80226032 -1.80226,0 0,1.80226 1.80226,0 0,1.80226 1.80226,0 0,-1.80226 1.80226,0 z"
     id="path6-9" />
  <path
     inkscape:connector-curvature="0"
     style="fill:#ffffff;fill-opacity:1"
     d="m 9.0762721,10.217514 c -5.40678,0 0,0 -5.40678,0 l 0,1.802261 5.40678,0 z"
     id="path6-9-2"
     sodipodi:nodetypes="ccccc" />
</svg>
